<?xml version="1.0" encoding="UTF-8"?>
<svg xmlns="http://www.w3.org/2000/svg" xmlns:xlink="http://www.w3.org/1999/xlink" width="12pt" height="16pt" viewBox="0 0 12 16" version="1.1">
<g id="surface16">
<path style=" stroke:none;fill-rule:evenodd;fill:rgb(65.097046%,65.097046%,65.097046%);fill-opacity:1;" d="M 4.800781 6.359375 L 4.800781 6.058594 C 4.800781 5.894531 4.664063 5.757813 4.5 5.757813 L 1.5 5.757813 C 1.335938 5.757813 1.199219 5.894531 1.199219 6.058594 L 1.199219 13.859375 C 1.199219 14.023438 1.335938 14.160156 1.5 14.160156 L 10.5 14.160156 C 10.664063 14.160156 10.800781 14.023438 10.800781 13.859375 L 10.800781 6.660156 C 10.800781 6.492188 10.664063 6.359375 10.5 6.359375 Z M 4.800781 6.359375 "/>
<path style=" stroke:none;fill-rule:evenodd;fill:rgb(99.998474%,99.998474%,99.998474%);fill-opacity:1;" d="M 10.050781 13.558594 L 1.949219 13.558594 C 1.867188 13.558594 1.800781 13.492188 1.800781 13.410156 L 1.800781 8.160156 L 10.199219 8.160156 L 10.199219 13.410156 C 10.199219 13.492188 10.132813 13.558594 10.050781 13.558594 Z M 10.050781 13.558594 "/>
<path style=" stroke:none;fill-rule:evenodd;fill:rgb(89.802551%,89.802551%,89.802551%);fill-opacity:1;" d="M 10.199219 7.558594 L 1.800781 7.558594 L 1.800781 6.507813 C 1.800781 6.425781 1.867188 6.359375 1.949219 6.359375 L 4.050781 6.359375 C 4.132813 6.359375 4.199219 6.425781 4.199219 6.507813 L 4.199219 6.960938 L 10.050781 6.960938 C 10.132813 6.960938 10.199219 7.027344 10.199219 7.109375 Z M 10.199219 7.558594 "/>
</g>
</svg>
