<?xml version="1.0" encoding="UTF-8"?>
<svg xmlns="http://www.w3.org/2000/svg" xmlns:xlink="http://www.w3.org/1999/xlink" width="12pt" height="16pt" viewBox="0 0 12 16" version="1.1">
<g id="surface11">
<path style=" stroke:none;fill-rule:evenodd;fill:rgb(65.097046%,65.097046%,65.097046%);fill-opacity:1;" d="M 10.800781 5.460938 C 10.800781 4.960938 10.398438 4.558594 9.898438 4.558594 L 2.699219 4.558594 C 2.203125 4.558594 1.800781 4.960938 1.800781 5.460938 L 1.800781 13.859375 C 1.800781 14.355469 2.203125 14.757813 2.699219 14.757813 L 9.898438 14.757813 C 10.398438 14.757813 10.800781 14.355469 10.800781 13.859375 Z M 10.800781 5.460938 "/>
<path style=" stroke:none;fill-rule:evenodd;fill:rgb(86.665344%,6.666565%,0%);fill-opacity:1;" d="M 3 8.757813 L 3 9.359375 L 1.199219 9.359375 L 1.199219 8.757813 Z M 1.199219 9.960938 L 1.199219 10.558594 L 3 10.558594 L 3 9.960938 Z M 1.199219 7.558594 L 1.199219 8.160156 L 3 8.160156 L 3 7.558594 Z M 1.199219 11.160156 L 1.199219 11.757813 L 3 11.757813 L 3 11.160156 Z M 1.199219 12.359375 L 1.199219 12.960938 L 3 12.960938 L 3 12.359375 Z M 3 5.160156 L 1.199219 5.160156 L 1.199219 5.757813 L 3 5.757813 Z M 3 13.558594 L 1.199219 13.558594 L 1.199219 14.160156 L 3 14.160156 Z M 1.199219 6.359375 L 1.199219 6.960938 L 3 6.960938 L 3 6.359375 Z M 1.199219 6.359375 "/>
<path style=" stroke:none;fill-rule:evenodd;fill:rgb(99.998474%,99.998474%,99.998474%);fill-opacity:1;" d="M 2.699219 5.160156 L 9.898438 5.160156 C 10.066406 5.160156 10.199219 5.292969 10.199219 5.460938 L 10.199219 13.859375 C 10.199219 14.023438 10.066406 14.160156 9.898438 14.160156 L 2.699219 14.160156 C 2.535156 14.160156 2.398438 14.023438 2.398438 13.859375 L 2.398438 5.460938 C 2.398438 5.292969 2.535156 5.160156 2.699219 5.160156 Z M 2.699219 5.160156 "/>
<path style=" stroke:none;fill-rule:evenodd;fill:rgb(86.665344%,6.666565%,0%);fill-opacity:1;" d="M 8.632813 9.660156 L 9.589844 8.585938 L 8.183594 8.28125 L 8.328125 6.851563 L 7.011719 7.429688 L 6.289063 6.1875 L 5.5625 7.429688 L 4.25 6.851563 L 4.390625 8.28125 L 2.988281 8.585938 L 3.945313 9.660156 L 2.988281 10.730469 L 4.390625 11.035156 L 4.25 12.464844 L 5.5625 11.886719 L 6.289063 13.128906 L 7.011719 11.890625 L 8.328125 12.464844 L 8.183594 11.039063 L 9.589844 10.730469 Z M 8.886719 10.351563 L 8.246094 10.132813 L 7.808594 9.566406 L 8.371094 9.773438 Z M 6.824219 11.675781 L 6.425781 12.355469 L 6.425781 11.652344 L 6.839844 11.050781 Z M 5.894531 8.171875 L 5.214844 7.929688 L 4.820313 7.398438 L 5.535156 7.714844 Z M 7.042969 7.714844 L 7.753906 7.402344 L 7.363281 7.929688 L 6.683594 8.171875 Z M 7.90625 8.339844 L 7.5625 8.828125 L 7.582031 8.089844 L 7.984375 7.546875 Z M 6.289063 11.371094 L 5.761719 10.597656 L 6.289063 9.882813 L 6.816406 10.597656 Z M 5.296875 9.175781 L 5.269531 8.238281 L 6.148438 8.550781 L 6.148438 9.464844 Z M 6.425781 8.550781 L 7.308594 8.238281 L 7.28125 9.175781 L 6.425781 9.464844 Z M 4.671875 8.339844 L 4.59375 7.546875 L 4.996094 8.089844 L 5.015625 8.828125 Z M 6.066406 9.722656 L 5.539063 10.4375 L 4.644531 10.175781 L 5.210938 9.433594 Z M 5.738281 11.050781 L 6.148438 11.652344 L 6.148438 12.355469 L 5.753906 11.675781 Z M 6.507813 9.722656 L 7.363281 9.433594 L 7.933594 10.175781 L 7.035156 10.4375 Z M 9.074219 8.753906 L 8.410156 9.5 L 7.625 9.207031 L 8.097656 8.539063 Z M 6.289063 6.730469 L 6.792969 7.589844 L 6.289063 8.234375 L 5.785156 7.589844 Z M 3.5 8.753906 L 4.480469 8.539063 L 4.949219 9.207031 L 4.167969 9.5 Z M 4.207031 9.773438 L 4.765625 9.566406 L 4.332031 10.132813 L 3.691406 10.351563 Z M 3.75 10.617188 L 4.417969 10.390625 L 5.128906 10.601563 L 4.53125 10.789063 Z M 4.664063 11.03125 L 5.460938 10.78125 L 5.480469 11.628906 L 4.566406 12.03125 Z M 7.09375 11.628906 L 7.117188 10.78125 L 7.910156 11.03125 L 8.011719 12.03125 Z M 8.042969 10.789063 L 7.449219 10.601563 L 8.160156 10.390625 L 8.828125 10.617188 Z M 8.042969 10.789063 "/>
</g>
</svg>
